<svg xmlns="http://www.w3.org/2000/svg" viewBox="0 0 164.86 41.82"><title>Ativo 27</title><g id="Camada_2" data-name="Camada 2"><g id="Pagina_7" data-name="Pagina 7"><path d="M189.43,137.25l-.74-.22c-.49-.13-1.19-.35-2.1-.56l-1.52-.36-.85-.21-.93-.18c-1.28-.25-2.71-.58-4.29-.81s-3.29-.57-5.11-.74l-2.8-.33c-.47-.05-1-.13-1.44-.16l-1.48-.11-3-.22c-1-.07-2.06-.16-3.1-.16l-6.32-.15-6.39.16c-1.07,0-2.08.12-3.11.18l-3,.22-1.48.1-1.44.17-2.8.33-1.34.16c-.45,0-.87.14-1.3.2l-2.47.39-1.16.18c-.37.06-.74.15-1.1.22l-2,.4-.93.18-.86.2-1.51.36c-.91.21-1.62.42-2.11.54l-.74.22.7-.33c.47-.19,1.14-.51,2-.84l1.47-.53.84-.31.91-.28c1.26-.36,2.67-.86,4.26-1.2s3.27-.85,5.11-1.12l2.81-.49,1.46-.25,1.5-.16,3.09-.33c1-.1,2.1-.25,3.15-.26l6.39-.23h.43l.41,0,.81,0,1.61.06,3.21.11c.53,0,1.06,0,1.59.07l1.56.17,3.07.33c2,.15,3.94.58,5.77.89s3.54.74,5.12,1.11,3,.84,4.25,1.22,2.33.82,3.22,1.13,1.56.66,2,.85.7.34.7.34Z" transform="translate(-24.57 -95.44)" style="fill:#1d2b39"/><path d="M161.32,95.44v16.47H150.45V95.44H134.52v35.68c.84-.2,1.69-.38,2.6-.51l4.25-.74h.06l4.58-.48.79-.09a22.07,22.07,0,0,1,2.46-.18l1.19,0v-5.42l5.41-4.42,5.46,4.42v5.42l.85,0,.55,0c.35,0,.72,0,1.09.06l4.64.49c1.49.12,2.92.38,4.31.63l1.52.27c.84.12,1.65.29,2.43.47V95.44Z" transform="translate(-24.57 -95.44)" style="fill:#1d2b39"/><polygon points="29.72 0.22 29.72 30.42 24.47 30.42 24.47 16.57 5.59 16.57 5.59 30.42 0.34 30.42 0.34 0.22 5.59 0.22 5.59 11.18 24.47 11.18 24.47 0.22 29.72 0.22 29.72 0.22" style="fill:#666363"/><path d="M78.5,120.42a4.23,4.23,0,0,0,0-8.46H63.73v8.5H78.5v0ZM63.73,106.57H77a2.76,2.76,0,0,0,0-5.52H63.73v5.52Zm24.12,9.66a9.5,9.5,0,0,1-9.35,9.63h-20V95.65H77a8.07,8.07,0,0,1,7.94,8.16,8.21,8.21,0,0,1-1.26,4.4,9.71,9.71,0,0,1,4.19,8Z" transform="translate(-24.57 -95.44)" style="fill:#666363"/><path d="M109.5,106.61a2.28,2.28,0,0,0,1.09-.26,2.73,2.73,0,0,0,1.6-2.5,2.84,2.84,0,0,0-.8-2,2.57,2.57,0,0,0-1.89-.78H96.2v5.57l13.3,0Zm5.21,13.9,2.68,5.39h-5.87l-2.69-5.39L106,114.85l-.13-.26a5.15,5.15,0,0,0-4.44-2.58H96.2V125.9H91V95.7H109.5a7.72,7.72,0,0,1,5.58,2.37,8.38,8.38,0,0,1,2.31,5.78,8.2,8.2,0,0,1-4.61,7.42,6.88,6.88,0,0,1-2.27.65l4.2,8.59Z" transform="translate(-24.57 -95.44)" style="fill:#666363"/><polygon points="0.31 40.21 0 40.21 0 36 0.31 36 0.31 40.21 0.31 40.21" style="fill:#666363"/><path d="M28.08,135.64h-.29v-1.76a.9.9,0,0,0-.19-.63A.72.72,0,0,0,27,133a.77.77,0,0,0-.42.1.59.59,0,0,0-.27.29,1.08,1.08,0,0,0-.09.46v1.76H26V132.8h.29v.33a1,1,0,0,1,.81-.37,1,1,0,0,1,.74.27,1.06,1.06,0,0,1,.28.79v1.82Z" transform="translate(-24.57 -95.44)" style="fill:#666363"/><polygon points="6.37 37.36 5.36 40.21 5.07 40.21 4.06 37.36 4.38 37.36 5.21 39.85 6.04 37.36 6.37 37.36 6.37 37.36" style="fill:#666363"/><path d="M33.3,134q0-.21,0-.3a1,1,0,0,0-.07-.23.7.7,0,0,0-.28-.35.78.78,0,0,0-.44-.13.73.73,0,0,0-.43.13.7.7,0,0,0-.28.35,1.68,1.68,0,0,0-.08.24,2,2,0,0,0,0,.29Zm.29.24H31.67a1.32,1.32,0,0,0,.23.83.79.79,0,0,0,.67.29,1,1,0,0,0,.41-.07,1.32,1.32,0,0,0,.35-.27l.22.18a1.48,1.48,0,0,1-.45.33,1.29,1.29,0,0,1-.55.1,1.17,1.17,0,0,1-.64-.16,1,1,0,0,1-.4-.49,2.13,2.13,0,0,1-.13-.8,2.35,2.35,0,0,1,.07-.62,1.18,1.18,0,0,1,.22-.45,1,1,0,0,1,.35-.29,1.2,1.2,0,0,1,.47-.1,1.14,1.14,0,0,1,.46.09,1,1,0,0,1,.34.28,1.17,1.17,0,0,1,.22.43,1.79,1.79,0,0,1,.08.59v.13Z" transform="translate(-24.57 -95.44)" style="fill:#666363"/><path d="M36.5,134.83a.77.77,0,0,1-.14.45.86.86,0,0,1-.38.29,1.55,1.55,0,0,1-.59.1,1.54,1.54,0,0,1-1.12-.4l.2-.21a1.2,1.2,0,0,0,.91.35,1.07,1.07,0,0,0,.62-.15.48.48,0,0,0,.21-.43.4.4,0,0,0-.13-.33.61.61,0,0,0-.4-.14l-.46-.05c-.55,0-.83-.29-.83-.74a.8.8,0,0,1,.12-.43.82.82,0,0,1,.35-.28,1.38,1.38,0,0,1,.52-.1,1.92,1.92,0,0,1,.55.08,1.45,1.45,0,0,1,.43.22l-.2.2a1.24,1.24,0,0,0-.77-.24.82.82,0,0,0-.53.15.48.48,0,0,0-.18.4.43.43,0,0,0,.14.34.83.83,0,0,0,.42.14l.45,0a1.18,1.18,0,0,1,.6.19.65.65,0,0,1,.21.55Z" transform="translate(-24.57 -95.44)" style="fill:#666363"/><path d="M38.37,135.64h-.25a.69.69,0,0,1-.36-.09.67.67,0,0,1-.23-.27.92.92,0,0,1-.08-.38V133h-.37v-.22h.37v-.91h.3v.91h.62V133h-.62v1.88q0,.48.42.48h.2v.26Z" transform="translate(-24.57 -95.44)" style="fill:#666363"/><path d="M39.46,135.64h-.29V132.8h.29v2.84Zm.07-4a.23.23,0,0,1-.06.16.18.18,0,0,1-.15.07.21.21,0,0,1-.16-.07.2.2,0,0,1-.06-.15.23.23,0,0,1,.06-.16.2.2,0,0,1,.15-.06.23.23,0,0,1,.16.06.2.2,0,0,1,.06.15Z" transform="translate(-24.57 -95.44)" style="fill:#666363"/><path d="M44.44,135.64h-.29v-1.76a.9.9,0,0,0-.2-.63.7.7,0,0,0-.56-.22.77.77,0,0,0-.57.21.81.81,0,0,0-.21.58v1.82h-.29v-1.76a.9.9,0,0,0-.2-.63.71.71,0,0,0-.57-.22.82.82,0,0,0-.42.1.69.69,0,0,0-.27.29,1.08,1.08,0,0,0-.09.46v1.76h-.29V132.8h.29v.33a1,1,0,0,1,.82-.37,1.16,1.16,0,0,1,.38.06.92.92,0,0,1,.3.18,1,1,0,0,1,.21.28,1,1,0,0,1,.94-.52,1.07,1.07,0,0,1,.41.07.87.87,0,0,1,.32.2,1.07,1.07,0,0,1,.29.79v1.82Z" transform="translate(-24.57 -95.44)" style="fill:#666363"/><path d="M47.22,134q0-.21,0-.3a1,1,0,0,0-.07-.23.7.7,0,0,0-.28-.35.77.77,0,0,0-.43-.13.76.76,0,0,0-.72.48.9.9,0,0,0-.07.24,1.72,1.72,0,0,0,0,.29Zm.29.24H45.59a1.32,1.32,0,0,0,.23.83.8.8,0,0,0,.67.29,1,1,0,0,0,.41-.07,1.18,1.18,0,0,0,.35-.27l.22.18a1.45,1.45,0,0,1-.44.33,1.34,1.34,0,0,1-.56.1,1.19,1.19,0,0,1-.64-.16,1,1,0,0,1-.4-.49,2.13,2.13,0,0,1-.13-.8,2.35,2.35,0,0,1,.07-.62,1.35,1.35,0,0,1,.22-.45,1.09,1.09,0,0,1,.35-.29,1.2,1.2,0,0,1,.47-.1,1.14,1.14,0,0,1,.46.09,1.17,1.17,0,0,1,.35.28,1.34,1.34,0,0,1,.22.43,2.12,2.12,0,0,1,.07.59v.13Z" transform="translate(-24.57 -95.44)" style="fill:#666363"/><path d="M50.51,135.64h-.29v-1.76a.9.9,0,0,0-.2-.63.7.7,0,0,0-.56-.22.77.77,0,0,0-.42.1.59.59,0,0,0-.27.29,1.08,1.08,0,0,0-.09.46v1.76h-.3V132.8h.3v.33a1.11,1.11,0,0,1,1.55-.1,1.06,1.06,0,0,1,.28.79v1.82Z" transform="translate(-24.57 -95.44)" style="fill:#666363"/><path d="M52.44,135.64h-.25a.69.69,0,0,1-.36-.09.67.67,0,0,1-.23-.27.92.92,0,0,1-.07-.38V133h-.38v-.22h.38v-.91h.29v.91h.62V133h-.62v1.88q0,.48.42.48h.2v.26Z" transform="translate(-24.57 -95.44)" style="fill:#666363"/><path d="M55,134.22a2.9,2.9,0,0,0-.05-.56.73.73,0,0,0-.2-.39.75.75,0,0,0-.57-.24.78.78,0,0,0-.58.24.76.76,0,0,0-.2.4,2.87,2.87,0,0,0,0,.55,3,3,0,0,0,0,.55.8.8,0,0,0,.2.4.81.81,0,0,0,1.15,0,.81.81,0,0,0,.2-.39,3,3,0,0,0,.05-.56Zm.29,0a3,3,0,0,1,0,.43,1.59,1.59,0,0,1-.1.39.87.87,0,0,1-.22.32,1.1,1.1,0,0,1-1.53,0,1,1,0,0,1-.21-.32,1.27,1.27,0,0,1-.11-.38,3.15,3.15,0,0,1,0-.44,2.57,2.57,0,0,1,.08-.65,1,1,0,0,1,.27-.5,1.06,1.06,0,0,1,.77-.31,1,1,0,0,1,.76.31,1,1,0,0,1,.22.33,1.59,1.59,0,0,1,.1.39,2.9,2.9,0,0,1,0,.43Z" transform="translate(-24.57 -95.44)" style="fill:#666363"/><path d="M58.1,134.83a.71.71,0,0,1-.14.45.81.81,0,0,1-.38.29,1.52,1.52,0,0,1-.59.1,1.54,1.54,0,0,1-1.12-.4l.2-.21a1.2,1.2,0,0,0,.91.35,1.07,1.07,0,0,0,.62-.15.49.49,0,0,0,.22-.43.44.44,0,0,0-.13-.33.64.64,0,0,0-.4-.14l-.46-.05c-.56,0-.84-.29-.84-.74a.8.8,0,0,1,.12-.43.82.82,0,0,1,.35-.28,1.39,1.39,0,0,1,.53-.1,1.91,1.91,0,0,1,.54.08,1.34,1.34,0,0,1,.43.22l-.2.2A1.24,1.24,0,0,0,57,133a.84.84,0,0,0-.53.15.48.48,0,0,0-.18.4.43.43,0,0,0,.14.34.83.83,0,0,0,.43.14l.44,0a1.18,1.18,0,0,1,.6.19.65.65,0,0,1,.21.55Z" transform="translate(-24.57 -95.44)" style="fill:#666363"/><path d="M62.2,134a1.9,1.9,0,0,0,0-.3,1.83,1.83,0,0,0-.07-.23.72.72,0,0,0-.29-.35.78.78,0,0,0-.86,0,.72.72,0,0,0-.29.35,1.53,1.53,0,0,0-.07.24,2,2,0,0,0,0,.29Zm.3.24H60.58a1.26,1.26,0,0,0,.23.83.77.77,0,0,0,.66.29,1.06,1.06,0,0,0,.42-.07,1.32,1.32,0,0,0,.35-.27l.22.18a1.61,1.61,0,0,1-.45.33,1.29,1.29,0,0,1-.55.1,1.17,1.17,0,0,1-.64-.16,1,1,0,0,1-.4-.49,2.12,2.12,0,0,1-.14-.8,2.33,2.33,0,0,1,.08-.62,1.18,1.18,0,0,1,.22-.45,1,1,0,0,1,.35-.29,1.15,1.15,0,0,1,.46-.1,1.08,1.08,0,0,1,.46.09,1.06,1.06,0,0,1,.35.28,1.17,1.17,0,0,1,.22.43,2.1,2.1,0,0,1,.08.59v.13Z" transform="translate(-24.57 -95.44)" style="fill:#666363"/><polygon points="43.39 40.21 43.08 40.21 40.72 36.55 40.72 40.21 40.41 40.21 40.41 36 40.72 36 43.08 39.64 43.08 36 43.39 36 43.39 40.21 43.39 40.21" style="fill:#666363"/><path d="M70.83,134q0-.21,0-.3a1,1,0,0,0-.07-.23.7.7,0,0,0-.28-.35A.78.78,0,0,0,70,133a.73.73,0,0,0-.43.13.7.7,0,0,0-.28.35,1.68,1.68,0,0,0-.08.24,2,2,0,0,0,0,.29Zm.29.24H69.2a1.32,1.32,0,0,0,.23.83.79.79,0,0,0,.67.29,1,1,0,0,0,.41-.07,1.32,1.32,0,0,0,.35-.27l.22.18a1.74,1.74,0,0,1-.44.33,1.37,1.37,0,0,1-.56.1,1.17,1.17,0,0,1-.64-.16A1,1,0,0,1,69,135a2.13,2.13,0,0,1-.13-.8,2.35,2.35,0,0,1,.07-.62,1.35,1.35,0,0,1,.22-.45,1,1,0,0,1,.35-.29,1.2,1.2,0,0,1,.47-.1,1.14,1.14,0,0,1,.46.09,1,1,0,0,1,.34.28,1.17,1.17,0,0,1,.22.43,2.1,2.1,0,0,1,.08.59v.13Z" transform="translate(-24.57 -95.44)" style="fill:#666363"/><path d="M73.73,134.22a2.11,2.11,0,0,0-.16-.87A.64.64,0,0,0,73,133a.62.62,0,0,0-.62.32,2,2,0,0,0-.16.87,1.88,1.88,0,0,0,.16.86.61.61,0,0,0,.62.33.63.63,0,0,0,.62-.33,2,2,0,0,0,.16-.86ZM74,135.8a1.47,1.47,0,0,1-.14.64,1,1,0,0,1-.39.43,1.08,1.08,0,0,1-.6.16,1.26,1.26,0,0,1-.48-.08,1.54,1.54,0,0,1-.43-.29l.19-.2a1.81,1.81,0,0,0,.34.24,1,1,0,0,0,.38.07.76.76,0,0,0,.63-.27,1.14,1.14,0,0,0,.21-.72v-.51a1,1,0,0,1-.25.25.66.66,0,0,1-.27.12,1.45,1.45,0,0,1-.3,0,.92.92,0,0,1-.68-.24,2.21,2.21,0,0,1,0-2.42.71.71,0,0,1,.29-.18.94.94,0,0,1,.39-.07,1.06,1.06,0,0,1,.45.09.82.82,0,0,1,.37.31v-.36H74v3Z" transform="translate(-24.57 -95.44)" style="fill:#666363"/><path d="M76.69,131.29l-.6.87h-.34l.56-.87Zm.15,2.93a3,3,0,0,0,0-.56.73.73,0,0,0-.2-.39A.78.78,0,0,0,76,133a.75.75,0,0,0-.57.24.7.7,0,0,0-.2.4,2.87,2.87,0,0,0,0,.55,3,3,0,0,0,0,.55.73.73,0,0,0,.2.4.76.76,0,0,0,.57.24.78.78,0,0,0,.58-.24.81.81,0,0,0,.2-.39,3.06,3.06,0,0,0,0-.56Zm.29,0c0,.15,0,.29,0,.43A1.6,1.6,0,0,1,77,135a1,1,0,0,1-.21.32,1.11,1.11,0,0,1-1.54,0A1,1,0,0,1,75,135a1.64,1.64,0,0,1-.1-.38,3.15,3.15,0,0,1,0-.44,2.59,2.59,0,0,1,.07-.65,1.11,1.11,0,0,1,.27-.5,1.11,1.11,0,0,1,1.54,0,1.15,1.15,0,0,1,.21.33,1.6,1.6,0,0,1,.11.39c0,.13,0,.28,0,.43Z" transform="translate(-24.57 -95.44)" style="fill:#666363"/><path d="M80,135.24a1.33,1.33,0,0,1-.42.34,1.22,1.22,0,0,1-.49.09,1.28,1.28,0,0,1-.5-.09,1.14,1.14,0,0,1-.39-.3,1.19,1.19,0,0,1-.24-.46,2,2,0,0,1-.09-.6,1.87,1.87,0,0,1,.15-.78,1.12,1.12,0,0,1,1.07-.68,1,1,0,0,1,.49.1,1.23,1.23,0,0,1,.42.34l-.2.19a2.28,2.28,0,0,0-.23-.22.76.76,0,0,0-.22-.11,1.06,1.06,0,0,0-.27,0,.82.82,0,0,0-.73.37.83.83,0,0,0-.14.35,2,2,0,0,0,0,.47,3.06,3.06,0,0,0,0,.47,1,1,0,0,0,.15.34.83.83,0,0,0,.73.38.86.86,0,0,0,.38-.08,1.17,1.17,0,0,0,.34-.28l.2.19Z" transform="translate(-24.57 -95.44)" style="fill:#666363"/><path d="M81.1,135.64h-.29V132.8h.29v2.84Zm.07-4a.23.23,0,0,1-.06.16.21.21,0,0,1-.16.07.18.18,0,0,1-.15-.07.2.2,0,0,1-.06-.15.23.23,0,0,1,.06-.16.22.22,0,0,1,.3,0,.18.18,0,0,1,.07.15Z" transform="translate(-24.57 -95.44)" style="fill:#666363"/><path d="M83.91,134.22a3,3,0,0,0,0-.56.73.73,0,0,0-.2-.39.78.78,0,0,0-.58-.24.75.75,0,0,0-.57.24.76.76,0,0,0-.2.4,2.87,2.87,0,0,0,0,.55,3,3,0,0,0,0,.55.8.8,0,0,0,.2.4.81.81,0,0,0,1.15,0,.81.81,0,0,0,.2-.39,3.06,3.06,0,0,0,0-.56Zm.29,0a3,3,0,0,1,0,.43,1.6,1.6,0,0,1-.11.39,1,1,0,0,1-.21.32,1,1,0,0,1-.77.31,1,1,0,0,1-.77-.31,1,1,0,0,1-.21-.32,1.64,1.64,0,0,1-.1-.38,3.15,3.15,0,0,1,0-.44,2.59,2.59,0,0,1,.07-.65,1.11,1.11,0,0,1,.27-.5,1.07,1.07,0,0,1,.77-.31,1.06,1.06,0,0,1,.77.31,1.15,1.15,0,0,1,.21.33,1.6,1.6,0,0,1,.11.39,3,3,0,0,1,0,.43Z" transform="translate(-24.57 -95.44)" style="fill:#666363"/><path d="M87.06,134.83a.77.77,0,0,1-.14.45.84.84,0,0,1-.39.29,1.47,1.47,0,0,1-.58.1,1.52,1.52,0,0,1-1.12-.4l.2-.21a1.18,1.18,0,0,0,.91.35,1.09,1.09,0,0,0,.62-.15.48.48,0,0,0,.21-.43.4.4,0,0,0-.13-.33.61.61,0,0,0-.4-.14l-.46-.05c-.55,0-.83-.29-.83-.74a.8.8,0,0,1,.12-.43.82.82,0,0,1,.35-.28,1.38,1.38,0,0,1,.52-.1,1.8,1.8,0,0,1,.54.08,1.34,1.34,0,0,1,.43.22l-.19.2a1.25,1.25,0,0,0-.78-.24.81.81,0,0,0-.52.15.48.48,0,0,0-.18.4.42.42,0,0,0,.13.34.91.91,0,0,0,.43.14l.45,0a1.22,1.22,0,0,1,.6.19.65.65,0,0,1,.21.55Z" transform="translate(-24.57 -95.44)" style="fill:#666363"/><polygon points="65.22 40.21 64.91 40.21 64.91 36 65.22 36 65.22 40.21 65.22 40.21" style="fill:#666363"/><path d="M94.82,135.64h-.29v-1.76a.9.9,0,0,0-.2-.63.7.7,0,0,0-.56-.22.77.77,0,0,0-.57.21.81.81,0,0,0-.21.58v1.82H92.7v-1.76a.9.9,0,0,0-.2-.63.71.71,0,0,0-.57-.22.82.82,0,0,0-.42.1.69.69,0,0,0-.27.29,1.08,1.08,0,0,0-.09.46v1.76h-.29V132.8h.29v.33a1,1,0,0,1,.82-.37,1.16,1.16,0,0,1,.38.06.92.92,0,0,1,.3.18,1,1,0,0,1,.21.28,1,1,0,0,1,.94-.52,1.16,1.16,0,0,1,.42.07.92.92,0,0,1,.31.2,1.07,1.07,0,0,1,.29.79v1.82Z" transform="translate(-24.57 -95.44)" style="fill:#666363"/><path d="M97.61,134.22a3,3,0,0,0,0-.56.73.73,0,0,0-.2-.39.78.78,0,0,0-.58-.24.75.75,0,0,0-.57.24.7.7,0,0,0-.2.4,2.87,2.87,0,0,0,0,.55,3,3,0,0,0,0,.55.73.73,0,0,0,.2.4.76.76,0,0,0,.57.24.78.78,0,0,0,.58-.24.81.81,0,0,0,.2-.39,3.06,3.06,0,0,0,0-.56Zm.29,0c0,.15,0,.29,0,.43a1.6,1.6,0,0,1-.11.39,1,1,0,0,1-.21.32,1,1,0,0,1-.77.31,1,1,0,0,1-.77-.31,1,1,0,0,1-.21-.32,1.64,1.64,0,0,1-.1-.38,3.15,3.15,0,0,1,0-.44,2.59,2.59,0,0,1,.07-.65,1.11,1.11,0,0,1,.27-.5,1.11,1.11,0,0,1,1.54,0,1.15,1.15,0,0,1,.21.33,1.6,1.6,0,0,1,.11.39c0,.13,0,.28,0,.43Z" transform="translate(-24.57 -95.44)" style="fill:#666363"/><path d="M100.65,134.22a2,2,0,0,0-.16-.87.63.63,0,0,0-.62-.32.62.62,0,0,0-.62.32,2,2,0,0,0-.16.87,1.88,1.88,0,0,0,.16.86.61.61,0,0,0,.62.33.62.62,0,0,0,.62-.33,1.88,1.88,0,0,0,.16-.86Zm.29,0a1.75,1.75,0,0,1-.35,1.21,1,1,0,0,1-.68.24,1.11,1.11,0,0,1-.46-.08.89.89,0,0,1-.36-.32v.37h-.3v-4.2h.3v1.72a.87.87,0,0,1,.36-.31,1.11,1.11,0,0,1,.46-.09,1,1,0,0,1,.39.07.79.79,0,0,1,.29.18,1.73,1.73,0,0,1,.35,1.21Z" transform="translate(-24.57 -95.44)" style="fill:#666363"/><path d="M102.12,135.64h-.3V132.8h.3v2.84Zm.07-4a.2.2,0,0,1-.07.16.2.2,0,0,1-.3,0,.21.21,0,0,1-.07-.15.24.24,0,0,1,.07-.16.22.22,0,0,1,.3,0,.21.21,0,0,1,.07.15Z" transform="translate(-24.57 -95.44)" style="fill:#666363"/><path d="M104,135.64h-.25a.64.64,0,0,1-.5-.2.81.81,0,0,1-.17-.54v-3.46h.29v3.46a.59.59,0,0,0,.1.36.39.39,0,0,0,.33.12h.2v.26Z" transform="translate(-24.57 -95.44)" style="fill:#666363"/><path d="M105.06,135.64h-.29V132.8h.29v2.84Zm.07-4a.23.23,0,0,1-.06.16.18.18,0,0,1-.15.07.21.21,0,0,1-.16-.07.2.2,0,0,1-.06-.15.23.23,0,0,1,.06-.16.2.2,0,0,1,.15-.06.23.23,0,0,1,.16.06.2.2,0,0,1,.06.15Z" transform="translate(-24.57 -95.44)" style="fill:#666363"/><path d="M107.64,131.29l-.61.87h-.33l.55-.87Zm.08,3.36v-.37h-.86c-.47,0-.71.19-.71.58a.49.49,0,0,0,.17.41.86.86,0,0,0,.55.14,1.54,1.54,0,0,0,.4,0,.64.64,0,0,0,.29-.18.71.71,0,0,0,.16-.54Zm.29,1h-.29v-.28a1.12,1.12,0,0,1-.36.25,1.68,1.68,0,0,1-.49.06,1.89,1.89,0,0,1-.35,0,1.34,1.34,0,0,1-.26-.08.75.75,0,0,1-.2-.15.77.77,0,0,1-.2-.56.71.71,0,0,1,.26-.6,1,1,0,0,1,.7-.22h.9v-.32a.68.68,0,0,0-.18-.52.86.86,0,0,0-.6-.17,1,1,0,0,0-.46.08.74.74,0,0,0-.31.28l-.21-.19a.92.92,0,0,1,.26-.26.8.8,0,0,1,.31-.14,2.48,2.48,0,0,1,.41,0c.71,0,1.07.31,1.07.93v1.95Z" transform="translate(-24.57 -95.44)" style="fill:#666363"/><path d="M110.78,133l-.21.22a.83.83,0,0,0-.24-.18.75.75,0,0,0-.28,0,.62.62,0,0,0-.31.07.55.55,0,0,0-.24.18.94.94,0,0,0-.15.28,1.15,1.15,0,0,0,0,.33v1.75H109V132.8h.3v.37a.77.77,0,0,1,.34-.3,1.08,1.08,0,0,1,.47-.11,1,1,0,0,1,.36.06.91.91,0,0,1,.3.21Z" transform="translate(-24.57 -95.44)" style="fill:#666363"/><path d="M111.72,135.64h-.29V132.8h.29v2.84Zm.07-4a.23.23,0,0,1-.06.16.22.22,0,0,1-.37-.15.2.2,0,0,1,.07-.16.21.21,0,0,1,.36.15Z" transform="translate(-24.57 -95.44)" style="fill:#666363"/><path d="M114.54,134.22a2.9,2.9,0,0,0-.05-.56.67.67,0,0,0-.2-.39.75.75,0,0,0-.57-.24.78.78,0,0,0-.58.24.84.84,0,0,0-.2.4,3,3,0,0,0,0,.55,3.09,3.09,0,0,0,0,.55.89.89,0,0,0,.2.4.78.78,0,0,0,.58.24.76.76,0,0,0,.57-.24.73.73,0,0,0,.2-.39,3,3,0,0,0,.05-.56Zm.29,0a3,3,0,0,1,0,.43,1.59,1.59,0,0,1-.1.39,1,1,0,0,1-.21.32,1.11,1.11,0,0,1-1.54,0,1,1,0,0,1-.21-.32,1.66,1.66,0,0,1-.11-.38c0-.14,0-.29,0-.44a2.59,2.59,0,0,1,.07-.65,1.11,1.11,0,0,1,.27-.5,1.11,1.11,0,0,1,1.54,0,1.15,1.15,0,0,1,.21.33,1.59,1.59,0,0,1,.1.39,2.9,2.9,0,0,1,0,.43Z" transform="translate(-24.57 -95.44)" style="fill:#666363"/><path d="M117.68,134.83a.77.77,0,0,1-.13.45.84.84,0,0,1-.39.29,1.5,1.5,0,0,1-.58.1,1.55,1.55,0,0,1-1.13-.4l.21-.21a1.16,1.16,0,0,0,.9.35,1.07,1.07,0,0,0,.62-.15.47.47,0,0,0,.22-.43.44.44,0,0,0-.13-.33.64.64,0,0,0-.4-.14l-.46-.05c-.56,0-.84-.29-.84-.74a.73.73,0,0,1,.13-.43.79.79,0,0,1,.34-.28,1.43,1.43,0,0,1,.53-.1,1.85,1.85,0,0,1,.54.08,1.34,1.34,0,0,1,.43.22l-.2.2a1.24,1.24,0,0,0-.77-.24.79.79,0,0,0-.52.15.48.48,0,0,0-.18.4.42.42,0,0,0,.13.34.83.83,0,0,0,.43.14l.44,0a1.18,1.18,0,0,1,.6.19.65.65,0,0,1,.21.55Z" transform="translate(-24.57 -95.44)" style="fill:#666363"/></g></g></svg>