<svg xmlns="http://www.w3.org/2000/svg" viewBox="0 0 1278.42 651.36"><title>Ativo 1</title><g id="Camada_2" data-name="Camada 2"><g id="Layer_2" data-name="Layer 2"><path d="M569.49,435.39c7.09-3.75,15.48-4.1,23.33-3.69a83,83,0,0,1,24.64,5.2,2.51,2.51,0,0,0,3.07-1.74,2.56,2.56,0,0,0-1.75-3.08,87.14,87.14,0,0,0-26.42-5.4c-8.63-.41-17.63.29-25.39,4.39-2.85,1.51-.32,5.82,2.52,4.32Z" fill="#589630"/><path d="M908.12,507.47c4.72,6.22,12.24,9.83,19.9,11.35s15.54,1.18,23.34.83l52.14-2.37a64.87,64.87,0,0,1-32.89-35.42c-5.34-14.09-6.59-31.37-18.83-40.16-9.25-6.64-23.29-5.42-31.26,2.71-9.4,9.6-3.08,20.95-7.75,31.13-1.82,3.95-6.56,5.63-8.29,10.4C902,492.81,903.79,501.75,908.12,507.47Z" fill="#589630"/><path d="M586.94,461.45a11.48,11.48,0,0,0,3.16,5.05,54.57,54.57,0,0,0,11.52,9.35c6.69,4,14.16,6.6,21.57,9.13l54.34,18.52c-6.47-7.72-8.23-18.36-8.29-28.44s1.32-20.19.09-30.19c-2.62-21.18-21.64-35.29-42.41-26.05C615,424.13,583.36,446,586.94,461.45Z" fill="#589630"/><path d="M491.35,252.42c7.79-7.17,19.34-7.94,29.92-8.33,1.77-9.12,13.13-13.8,22.08-11.31s15.6,10,20.68,17.78a108.77,108.77,0,0,1,17.52,59.61c.13-22.34-53.78-15.93-66.38-14.8C493.23,297.34,471.8,270.39,491.35,252.42Z" fill="#589630"/><path d="M467.25,254.46c3.74-6,10.2-9.47,16.72-11.64A59.66,59.66,0,0,1,495.76,240c3.91-.47,8.14-.42,11.77,1.29a12.09,12.09,0,0,1,7,7.93c.74,3.13,5.56,1.81,4.82-1.33-2.17-9.14-11.92-13.36-20.55-13.12a55.44,55.44,0,0,0-14.19,2.57A50.53,50.53,0,0,0,473,242.29a29.77,29.77,0,0,0-10.1,9.64c-1.72,2.74,2.61,5.25,4.32,2.53Z" fill="#589630"/><path d="M223.52,219.68c-8.11,10.12-8.64,24.9-3.69,36.88s14.61,21.46,25.26,28.85c9.31,6.47,19.81,11.69,31.08,12.84-7.54-7.62-5.46-20.58-.16-29.9s13.22-17.21,16.81-27.31c3.87-10.86,1.64-24.19-7-31.8-9.94-8.74-19.56-4.15-30.35-1.33C244,210.91,231.87,209.26,223.52,219.68Z" fill="#589630"/><path d="M1146.06,456.94a128.46,128.46,0,0,0,40.07-38.45c3.06-4.61,6.15-9.48,6.41-15.16.15-3.21-4.85-3.21-5,0-.2,4.43-2.92,8.36-5.27,11.94a120,120,0,0,1-7.73,10.49,125.5,125.5,0,0,1-18.92,18.52,120.68,120.68,0,0,1-12.09,8.34c-2.74,1.67-.23,6,2.53,4.32Z" fill="#6fc13a"/><path d="M1070.06,315.49c-5.61,8.13-8.63,17.73-9.68,27.49-.93,8.6-.18,17.68,3.08,25.74a38.32,38.32,0,0,0,8.1,12.62c2.25,2.3,5.79-1.24,3.53-3.54-11.63-11.87-12-31.24-7.31-46.24a50.37,50.37,0,0,1,6.6-13.55,2.5,2.5,0,1,0-4.32-2.52Z" fill="#6fc13a"/><path d="M889.54,425.8c5.46,8.92,13.61,15.57,22.07,21.5a160,160,0,0,0,13.74,9,44.84,44.84,0,0,0,15.92,5.23,108.16,108.16,0,0,0,19.13.44c3.2-.13,3.22-5.13,0-5-10.49.45-21.53.73-31.11-4.22A128.26,128.26,0,0,1,916,444.29a122,122,0,0,1-11.49-8.74,54,54,0,0,1-10.65-12.27c-1.68-2.74-6-.23-4.32,2.52Z" fill="#6fc13a"/><path d="M859.15,596a71.25,71.25,0,0,1,7.75-56A66.63,66.63,0,0,1,877,527.12c2.28-2.27-1.25-5.81-3.54-3.54a76.3,76.3,0,0,0-21.9,56.33,72.45,72.45,0,0,0,2.77,17.43c.89,3.09,5.72,1.77,4.82-1.33Z" fill="#6fc13a"/><path d="M662.68,587.44c-.85-5,2-10,4.61-14a71,71,0,0,1,8.8-11,54.13,54.13,0,0,1,24.67-14.86,42.62,42.62,0,0,1,16.63-1.18,2.59,2.59,0,0,0,3.07-1.75c.33-1.17-.39-2.89-1.74-3.07a51.41,51.41,0,0,0-32.65,6.72c-9.21,5.33-16.79,13.15-22.65,22-3.68,5.53-6.71,11.75-5.56,18.56a2.51,2.51,0,0,0,3.07,1.74,2.56,2.56,0,0,0,1.75-3.07Z" fill="#6fc13a"/><path d="M550.74,390.34c7.8-7.21,19.28-8,29.16-5.52,11,2.78,21.34,8.84,30.37,15.59a109.2,109.2,0,0,1,13.92,12.49c2.22,2.34,5.75-1.2,3.54-3.54A114.75,114.75,0,0,0,599.4,387.5c-10.75-5.88-22.84-10.35-35.26-8.56a31.51,31.51,0,0,0-16.94,7.87c-2.37,2.19,1.18,5.72,3.54,3.53Z" fill="#6fc13a"/><path d="M499.52,368.36c-1.53,4.87,3.79,8.89,6.88,11.79a133.52,133.52,0,0,0,10.88,9.14,129.58,129.58,0,0,0,24,14.38,136.44,136.44,0,0,0,15,5.88c3.07,1,4.39-3.83,1.33-4.82A127.12,127.12,0,0,1,513,379.42c-1.83-1.6-3.62-3.27-5.35-5-1-1-3.87-3.08-3.34-4.75,1-3.08-3.86-4.39-4.82-1.33Z" fill="#6fc13a"/><path d="M423.45,207.09a40.14,40.14,0,0,0,7.44,21.3c2.36,3.32,5,6.44,7.56,9.61a81,81,0,0,0,7,8.22,16.24,16.24,0,0,0,10.12,4.91,2.5,2.5,0,1,0,0-5c-3.49-.23-6.24-2.91-8.45-5.38-3-3.36-5.73-7-8.56-10.51a52.15,52.15,0,0,1-7.19-10.89,34.16,34.16,0,0,1-2.94-12.26c-.17-3.2-5.17-3.22-5,0Z" fill="#6fc13a"/><path d="M193.68,11.83c-7.76-.91-15,3.09-21.07,7.42-3.16,2.24-6.61,4.47-8.87,7.68s-2.82,7.12-3.32,10.87a46.28,46.28,0,0,0,.11,14.67,2.5,2.5,0,1,0,4.82-1.32,42.38,42.38,0,0,1,.2-14.21A21.23,21.23,0,0,1,167,31.22a13.16,13.16,0,0,1,4.06-4.68c6.36-5,14.07-10.71,22.59-9.71a2.51,2.51,0,0,0,2.5-2.5,2.56,2.56,0,0,0-2.5-2.5Z" fill="#6fc13a"/><path d="M133.79,201.54c-.54-6.18,2.54-11.61,6.07-16.43a99.93,99.93,0,0,1,13.12-15,45.53,45.53,0,0,1,32.78-11.41c5.43.31,12.3,1.53,15.09,6.81,1.5,2.85,5.82.32,4.32-2.52-2.93-5.54-9.23-8-15.13-8.85A50.22,50.22,0,0,0,152,164.43c-5.69,4.47-10.34,10.28-14.75,16-4.7,6.06-9.13,13.15-8.42,21.15a2.57,2.57,0,0,0,2.5,2.5,2.52,2.52,0,0,0,2.5-2.5Z" fill="#6fc13a"/><path d="M11.74,63.44C35.53,45.73,64,34.11,93.92,34.09a98.93,98.93,0,0,1,68.7,27.79c21.67,21.27,24.2,50.51,28.73,78.92,4.22,26.47,13.14,50.94,30.46,71.74,15.86,19.06,36.73,34.26,60.25,42.38,29.06,10,59.78,8.44,89.9,5.39,51-5.16,115.76-12.15,144.72,41,12.62,23.19,16.75,50.08,23.58,75.27A241.5,241.5,0,0,0,570.6,445c27.25,42.07,67.79,76,114.26,94.86,48.87,19.87,103,21.9,153.76,8,51.16-14,94.84-44.17,128.11-85.17,16.18-19.94,31.35-41.89,52.78-56.65,25.67-17.67,56.18-16.72,85.51-10.47,30.54,6.51,60.18,17.72,91.79,17.66,24.47,0,49.34-8.71,66.25-26.89a60.55,60.55,0,0,0,15.2-30c1.83-9.49-13-12.11-14.77-2.63-4.45,23.19-26.68,38.16-48.63,42.75-29.24,6.11-59.47-3.6-87.55-10.93-29.74-7.77-61.86-14.2-91.9-4.2-24.2,8.06-42.91,26.25-59,45.38-16.93,20.15-32,41.78-52.13,59a231.55,231.55,0,0,1-65.92,39.68c-48.35,19.08-103.27,22.4-152.91,6.09-47.11-15.48-88.54-46.68-117.15-87.1a224.1,224.1,0,0,1-32.23-66.64c-7.41-25.32-11.32-51.93-22.54-76-11-23.59-29-42.07-53.58-51.33-24.28-9.15-50.81-10.13-76.42-8.22-31.27,2.34-62.95,8.61-94.31,4a121.36,121.36,0,0,1-66.8-33.29c-18.7-18.09-30.41-41.42-35-66.89-5.21-28.6-6.33-58.57-24.09-83C150.65,18.23,89.49,9.84,40.45,29.9A171.54,171.54,0,0,0,3,51.24c-7.73,5.75,1,18,8.73,12.2Z" fill="#6fc13a"/><path d="M1262.09,375.68c-16.92,18.17-41.79,26.84-66.25,26.89-31.61.05-61.26-11.15-91.8-17.66-29.33-6.26-59.84-7.2-85.51,10.47-21.43,14.75-36.59,36.71-52.78,56.65-33.27,41-76.94,71.12-128.11,85.17-50.72,13.93-104.88,11.9-153.76-8-46.47-18.89-87-52.79-114.26-94.86A241.91,241.91,0,0,1,539.28,366c-6.83-25.2-10.95-52.09-23.58-75.27-29-53.16-93.68-46.17-144.71-41-30.13,3.05-60.85,4.63-89.91-5.4C257.56,236.21,236.7,221,220.83,202c-17.31-20.8-26.24-45.27-30.46-71.74-4.53-28.42-7.06-57.66-28.73-78.92a98.81,98.81,0,0,0-68.7-27.79C63,23.52,34.56,35.15,10.77,52.86a6.73,6.73,0,0,1-9-.47c-5.38,6.07,2.71,16.47,10,11C35.54,45.73,64,34.11,93.92,34.09a98.91,98.91,0,0,1,68.7,27.79c21.67,21.27,24.2,50.5,28.73,78.92,4.22,26.47,13.15,50.94,30.46,71.74,15.87,19.06,36.73,34.26,60.25,42.38,29.06,10,59.78,8.44,89.9,5.39,51-5.16,115.76-12.15,144.72,41,12.62,23.19,16.75,50.08,23.58,75.27A241.5,241.5,0,0,0,570.6,445c27.25,42.07,67.79,76,114.26,94.86,48.88,19.87,103,21.9,153.76,8,51.17-14,94.84-44.17,128.11-85.17,16.18-19.94,31.35-41.89,52.78-56.65,25.67-17.67,56.18-16.72,85.51-10.47,30.54,6.51,60.19,17.72,91.79,17.66,24.47,0,49.34-8.71,66.26-26.89a60.71,60.71,0,0,0,15.2-30,6.72,6.72,0,0,0-1.93-6.43A60.64,60.64,0,0,1,1262.09,375.68Z" fill="#63aa35"/><path d="M131.45,163.47c-8.35-.19-17.1,1.15-23.87,6.06s-10.88,13-13.5,21.11c-8.58,26.49-3.44,58.51,17.4,77-2.82-8.25,2-17.53,8.91-22.78s15.67-7.46,24-9.86c10.23-2.93,20.59-6.46,28.78-13.26s13.86-17.54,11.93-28c-2.5-13.53-13.38-15.14-24-18.95S143.72,163.74,131.45,163.47Z" fill="#6fc13a"/><path d="M182,29.82c2,5.71,6.11,10.94,11.81,13,8.17,2.93,17-1.16,25.25-3.69,9.81-3,20.48-3.8,30.34-1s18.78,9.63,23,19A64.47,64.47,0,0,0,206,0C187.38.71,175.33,10.77,182,29.82Z" fill="#6fc13a"/><path d="M405.51,225.57c-6.27-2.52-10.09-9.13-11.35-15.76s-.46-13.46-.1-20.21c.8-15.06-.79-30.55-7.2-44.21,2.69,7.16,9.65,11.93,16.87,14.47s14.94,3.29,22.37,5.12a78.76,78.76,0,0,1,31,15.62c4.49,3.71,8.65,8,11.05,13.36s2.8,11.76,0,16.86c-4.29,7.8-14.76,10.25-23.46,8.35s-12.38-3.16-19.94,1.05C418.23,223.86,414.32,229.11,405.51,225.57Z" fill="#6fc13a"/><path d="M496.13,338.75c-8-1.45-16.29-.89-24.46-1a143.13,143.13,0,0,1-42-7c7.25,11.81,9,26.07,13.7,39.1a90.78,90.78,0,0,0,23.35,35.47c7.95,7.41,18.91,13.65,29.28,10.4,9.15-2.86,12.56-11,13-19.76.49-9.93.14-12.2,5.3-20.37C525,358.62,515.57,342.26,496.13,338.75Z" fill="#6fc13a"/><path d="M600.83,419.43a20.93,20.93,0,0,0,9.67,18c4.44,2.77,9.75,3.74,14.93,4.54,13.51,2.11,27.22,3.55,40.25,7.68S691.27,461,699,472.24c-4.53-25.27-16.33-48.71-30.45-70.15-4.77-7.23-9.93-14.4-16.86-19.58s-16-8.16-24.4-6.05C613.55,379.91,616.62,389,613,398.62,610,406.42,601.11,409,600.83,419.43Z" fill="#6fc13a"/><path d="M624.84,566a37.73,37.73,0,0,0-8.21,40.58c2.77,6.6,7.41,12.24,12.23,17.54a222.07,222.07,0,0,0,29.77,27.24,26.88,26.88,0,0,1,4.45-28.74c7.13-7.8,18.43-10.77,25.47-18.66a29.56,29.56,0,0,0,7-20.55c-.19-5.55-2.36-11.75-7.51-13.83a16.07,16.07,0,0,0-7.83-.58,60.69,60.69,0,0,0-16.54,4.32C680.85,550.15,634.9,556.17,624.84,566Z" fill="#6fc13a"/><path d="M872.54,624.84c17.44,13.88,44.05,16.23,62.24,3.35-14.6,2.95-30.47-8.43-32.38-23.2-1.56-12.1,5-24.59,1.54-36.28-3.28-11-15.38-18-26.87-17.42C832.09,553.5,849.24,606.29,872.54,624.84Z" fill="#6fc13a"/><path d="M857.66,419.09c2.84,10.8,4.11,22.06,8.31,32.41,1.87,4.63,4.4,9.13,8.24,12.32,7.53,6.26,19.51,6,27.1-.18s10.34-17.44,7-26.63c5.6,1.21,11.6,1.4,16.93-.69s9.87-6.8,10.64-12.48c.94-6.95-3.88-13.65-10-17.18s-13.2-4.59-20.12-5.79c-24.92-4.33-48.92-11.53-72.58-20.36C844.31,392.3,853.37,402.76,857.66,419.09Z" fill="#6fc13a"/><path d="M1075.63,304.3c12.47-11,30-14.53,46.66-14.47,8.94,0,19,1.58,24.27,8.83a21.65,21.65,0,0,0-30,20.06c0,7.16,3.58,14.47,1.25,21.24-2.74,8-12.06,11.18-20.24,13.11-12.83,3-28.2,6-33.57-8.75C1058.92,330.49,1065,313.72,1075.63,304.3Z" fill="#6fc13a"/><path d="M1135.2,428.43c-8.33,2.29-16,7.93-19.3,15.92-1.79,4.31-2.23,9-2.77,13.69a261.6,261.6,0,0,1-11.39,51.43c2.74-8.57,11.51-13.82,20.19-16.18s17.86-2.62,26.45-5.29c9.9-3.08,18.59-9.24,26.21-16.28,6.34-5.85,12.35-13,13.24-21.55.36-3.44-.37-7.36-3.19-9.38s-6.38-1.53-9.69-1.1c-10.46,1.37-9.78-3.43-16.11-8.72S1143.22,426.22,1135.2,428.43Z" fill="#6fc13a"/><path d="M612.69,422.28a4,4,0,0,0,3.5,3.83c7.68,2.13,15.82.27,23.79-.05s17.09,1.62,21,8.54C654,422.39,606.34,387.91,612.69,422.28Z" fill="#80db45"/><path d="M101.7,240.17c1.8-7,7.3-12.63,13.62-16.18s13.44-5.35,20.48-7.1L151.29,213c3.13-.78,6.38-1.62,8.88-3.66,5.51-4.48,5.32-13.41,1.53-19.42C138.08,152.55,103.86,218.69,101.7,240.17Z" fill="#80db45"/><path d="M1117.14,487.15c15.31-6.63,30.81-13.38,43.85-23.78,2.55-2,5.07-4.31,6.26-7.34s.63-7-2.08-8.79c-4-2.65-9.17.71-12.75,3.91l-19.14,17.06c2.69-2.4-8.84-13.93-10.73-14.61C1120.18,464.57,1119.66,476.07,1117.14,487.15Z" fill="#80db45"/><path d="M654.34,608.31a44.39,44.39,0,0,0,27.53-21.59,5.87,5.87,0,0,0,1-3.92c-.39-1.8-2.24-2.87-4-3.45-6.42-2.14-13.41-.63-19.81.7,8.37-16.76-28.75-16.76-36.26-2.66-1.43,2.68-4.4,10.08-3.29,13.05,2.57,6.9,2.86,2.17,9.3,3.07C639.6,595,649.5,596.79,654.34,608.31Z" fill="#80db45"/><path d="M422.57,197.36a9.54,9.54,0,0,0,3,3.46,13.93,13.93,0,0,0,4.67,1.25c4.46.85,8.46,3.26,12.83,4.5s9.74.94,12.56-2.62,1.85-8.72-.82-12.2-6.75-5.56-10.71-7.45c-11.5-5.47-25.32-13-38-14.43C411.83,178.71,417,188.22,422.57,197.36Z" fill="#80db45"/></g></g></svg>