<svg xmlns="http://www.w3.org/2000/svg" viewBox="0 0 39.24 42.82"><title>Ativo 24</title><g id="Camada_2" data-name="Camada 2"><g id="Pagina_7" data-name="Pagina 7"><path d="M29.14,28a3,3,0,0,1,4.18.28l5.19,5.93a3,3,0,0,1-.28,4.17l-3.59,3.14a5.48,5.48,0,0,1-3.72,1.27c-.75-.13-2.23.14-3.31-.21-4.22-1.33-10.29-4-17.2-11.94S1.23,15.91.14,11.17C-.19,9.7.18,8,.09,7.1A4.18,4.18,0,0,1,1.53,4a1.94,1.94,0,0,0,.25-.26L4.27,1.55l1-.82A3,3,0,0,1,9.47,1L14.66,7a3,3,0,0,1-.28,4.17L9.91,15a45.39,45.39,0,0,0,6.74,10.16,41.08,41.08,0,0,0,7.76,7Z" style="fill:#47a1ff"/><path d="M35.2,41l-.56.49a5.48,5.48,0,0,1-3.72,1.27c-.75-.13-2.23.14-3.31-.21-4.22-1.33-10.29-4-17.2-11.94S1.23,15.91.14,11.17C-.19,9.7.18,8,.09,7.1a3.06,3.06,0,0,1,.1-.83C2.18,25.87,20,36.81,35.2,41Z" style="fill:#2685ff"/><path d="M8.42,1.57,11.51,5.1c-1.41-1.42-5-4-9.48-.1L6.12,1.42A1.64,1.64,0,0,1,8.42,1.57Z" style="fill:#58adff"/><path d="M32.21,29.12l3.09,3.53c-1.41-1.42-5-4-9.48-.1L29.91,29A1.64,1.64,0,0,1,32.21,29.12Z" style="fill:#58adff"/></g></g></svg>