<svg xmlns="http://www.w3.org/2000/svg" xmlns:xlink="http://www.w3.org/1999/xlink" viewBox="0 0 591.42 237.66"><title>Ativo 14</title><g id="Camada_2" data-name="Camada 2"><g id="Pagina_7" data-name="Pagina 7"><path d="M227.23,164.64l-.89-.27c-.59-.15-1.43-.41-2.52-.67l-1.82-.44-1-.24-1.11-.22c-1.54-.3-3.25-.7-5.16-1s-3.93-.68-6.12-.89l-3.36-.4c-.57,0-1.14-.15-1.73-.19l-1.77-.13-3.64-.26c-1.22-.09-2.46-.19-3.72-.19l-7.58-.18-7.67.19c-1.27,0-2.49.14-3.72.21l-3.62.26-1.77.13-1.73.21-3.35.39-1.62.18c-.53.07-1,.18-1.55.25l-3,.46-1.39.22c-.46.08-.89.18-1.32.26l-2.44.48-1.12.22-1,.25-1.82.42c-1.09.26-1.94.51-2.53.66l-.89.26s.29-.15.84-.4,1.37-.62,2.44-1l1.76-.65,1-.36,1.09-.34c1.51-.43,3.21-1,5.1-1.44s3.93-1,6.14-1.34l3.37-.59,1.75-.3,1.81-.19,3.69-.4c1.25-.12,2.52-.3,3.78-.31l7.67-.27h.52l.49,0,1,0,1.94.07,3.84.14c.64,0,1.28,0,1.91.08l1.87.21,3.68.39c2.43.19,4.73.7,6.93,1.06s4.24.89,6.13,1.35,3.59,1,5.11,1.45,2.79,1,3.85,1.36,1.87.8,2.43,1,.84.41.84.41Z" transform="translate(-29.47 -17.97)" style="fill:#1d2b39"/><path d="M193.51,114.48v19.76h-13V114.48h-19.1v42.8c1-.23,2-.45,3.11-.61l5.1-.88h.07l5.5-.59.94-.1c1-.1,1.95-.21,3-.22l1.42-.05v-6.5L187,143l6.55,5.3v6.5l1,0,.66,0c.42,0,.86,0,1.31.07l5.57.6a48.88,48.88,0,0,1,5.16.75l1.83.32c1,.15,2,.35,2.91.56v-42.7Z" transform="translate(-29.47 -17.97)" style="fill:#1d2b39"/><polygon points="35.65 96.77 35.65 133 29.36 133 29.36 116.39 6.71 116.39 6.71 133 0.41 133 0.41 96.77 6.71 96.77 6.71 109.92 29.36 109.92 29.36 96.77 35.65 96.77 35.65 96.77" style="fill:#666363"/><path d="M94.16,144.45a5.08,5.08,0,0,0,0-10.15H76.44v10.2H94.16v-.05ZM76.44,127.83h16a3.31,3.31,0,0,0,0-6.62h-16v6.62Zm28.94,11.6A11.4,11.4,0,0,1,94.16,151h-24V114.74h22.2a9.83,9.83,0,0,1,8,15.06,11.63,11.63,0,0,1,5,9.63Z" transform="translate(-29.47 -17.97)" style="fill:#666363"/><path d="M131.35,127.89a2.94,2.94,0,0,0,1.31-.31,3.29,3.29,0,0,0,1.91-3,3.49,3.49,0,0,0-.95-2.38,3.15,3.15,0,0,0-2.27-.93H115.4v6.68l15.95,0Zm6.24,16.66,3.23,6.47h-7l-3.22-6.47-3.37-6.78-.16-.31a6.19,6.19,0,0,0-5.33-3.1H115.4V151h-6.29V114.79h22.24a9.31,9.31,0,0,1,6.7,2.85,10.05,10.05,0,0,1,2.77,6.93,9.85,9.85,0,0,1-5.54,8.91,8.24,8.24,0,0,1-2.72.77l5,10.3Z" transform="translate(-29.47 -17.97)" style="fill:#666363"/><polygon points="0.37 144.74 0 144.74 0 139.7 0.37 139.7 0.37 144.74 0.37 144.74" style="fill:#666363"/><path d="M33.69,162.71h-.35v-2.12a1.1,1.1,0,0,0-.24-.76.88.88,0,0,0-.68-.26,1,1,0,0,0-.5.12.78.78,0,0,0-.32.35,1.18,1.18,0,0,0-.12.55v2.12h-.35v-3.42h.35v.41a1.22,1.22,0,0,1,1-.45,1.17,1.17,0,0,1,.88.33,1.26,1.26,0,0,1,.35.95v2.18Z" transform="translate(-29.47 -17.97)" style="fill:#666363"/><polygon points="7.64 141.33 6.43 144.74 6.08 144.74 4.87 141.33 5.25 141.33 6.25 144.31 7.25 141.33 7.64 141.33 7.64 141.33" style="fill:#666363"/><path d="M39.94,160.79c0-.17,0-.29,0-.37a1.83,1.83,0,0,0-.08-.28,1,1,0,0,0-.86-.57.94.94,0,0,0-.86.57,1.1,1.1,0,0,0-.09.3,1.56,1.56,0,0,0,0,.35Zm.35.29H38a1.63,1.63,0,0,0,.27,1,1,1,0,0,0,.81.34,1.22,1.22,0,0,0,.49-.09A1.3,1.3,0,0,0,40,162l.27.22a1.83,1.83,0,0,1-.54.39,1.47,1.47,0,0,1-.66.13,1.42,1.42,0,0,1-.77-.2,1.24,1.24,0,0,1-.48-.59,2.47,2.47,0,0,1-.16-1,2.78,2.78,0,0,1,.09-.74,1.6,1.6,0,0,1,.26-.54,1.1,1.1,0,0,1,.42-.35,1.28,1.28,0,0,1,.56-.12,1.18,1.18,0,0,1,1,.44,1.59,1.59,0,0,1,.26.52,2.55,2.55,0,0,1,.09.71v.16Z" transform="translate(-29.47 -17.97)" style="fill:#666363"/><path d="M43.78,161.73a.89.89,0,0,1-.16.54,1,1,0,0,1-.47.35,1.68,1.68,0,0,1-.7.13,1.81,1.81,0,0,1-1.34-.49l.24-.25a1.41,1.41,0,0,0,1.09.42,1.37,1.37,0,0,0,.74-.17.6.6,0,0,0,.26-.53.51.51,0,0,0-.16-.4.9.9,0,0,0-.48-.17l-.55,0c-.67-.05-1-.35-1-.89a.9.9,0,0,1,.15-.51.93.93,0,0,1,.41-.34,1.56,1.56,0,0,1,.64-.12,2.27,2.27,0,0,1,.65.1,1.64,1.64,0,0,1,.51.26l-.24.24a1.49,1.49,0,0,0-.92-.29,1,1,0,0,0-.63.18.55.55,0,0,0-.22.48.5.5,0,0,0,.16.41.94.94,0,0,0,.52.16l.53.05a1.39,1.39,0,0,1,.72.24.77.77,0,0,1,.25.65Z" transform="translate(-29.47 -17.97)" style="fill:#666363"/><path d="M46,162.71h-.31a.77.77,0,0,1-.43-.12.68.68,0,0,1-.27-.31,1.16,1.16,0,0,1-.09-.47v-2.25h-.46v-.27h.46V158.2h.35v1.09H46v.27h-.75v2.26c0,.38.17.57.5.57H46v.32Z" transform="translate(-29.47 -17.97)" style="fill:#666363"/><path d="M47.33,162.71H47v-3.42h.35v3.42Zm.09-4.82a.29.29,0,0,1-.08.19.23.23,0,0,1-.18.08.25.25,0,0,1-.18-.08.27.27,0,0,1,0-.38.27.27,0,0,1,.36,0,.29.29,0,0,1,.08.19Z" transform="translate(-29.47 -17.97)" style="fill:#666363"/><path d="M53.31,162.71H53v-2.12a1.1,1.1,0,0,0-.24-.76.86.86,0,0,0-.67-.26.88.88,0,0,0-.94,1v2.18h-.35v-2.12a1.1,1.1,0,0,0-.24-.76.86.86,0,0,0-.67-.26,1,1,0,0,0-.51.12A.78.78,0,0,0,49,160a1.18,1.18,0,0,0-.11.55v2.12h-.35v-3.42h.35v.41a1.21,1.21,0,0,1,1-.45,1.25,1.25,0,0,1,.45.08.91.91,0,0,1,.36.2,1.18,1.18,0,0,1,.26.35,1.23,1.23,0,0,1,1.13-.63,1.3,1.3,0,0,1,.49.09,1,1,0,0,1,.38.24,1.26,1.26,0,0,1,.35.95v2.18Z" transform="translate(-29.47 -17.97)" style="fill:#666363"/><path d="M56.64,160.79c0-.17,0-.29,0-.37a1.83,1.83,0,0,0-.08-.28,1,1,0,0,0-.86-.57.85.85,0,0,0-.52.16.93.93,0,0,0-.35.41,1.5,1.5,0,0,0-.08.3,1.56,1.56,0,0,0,0,.35Zm.35.29h-2.3a1.63,1.63,0,0,0,.27,1,1,1,0,0,0,.81.34,1.22,1.22,0,0,0,.49-.09,1.3,1.3,0,0,0,.42-.32l.27.22a1.83,1.83,0,0,1-.54.39,1.47,1.47,0,0,1-.66.13,1.42,1.42,0,0,1-.77-.2,1.24,1.24,0,0,1-.48-.59,2.47,2.47,0,0,1-.16-1,2.78,2.78,0,0,1,.09-.74,1.6,1.6,0,0,1,.26-.54,1.1,1.1,0,0,1,.42-.35,1.28,1.28,0,0,1,.56-.12,1.38,1.38,0,0,1,.55.11,1.34,1.34,0,0,1,.42.33,1.59,1.59,0,0,1,.26.52,2.55,2.55,0,0,1,.09.71v.16Z" transform="translate(-29.47 -17.97)" style="fill:#666363"/><path d="M60.59,162.71h-.35v-2.12a1.1,1.1,0,0,0-.24-.76.86.86,0,0,0-.67-.26,1,1,0,0,0-.51.12.78.78,0,0,0-.32.35,1.31,1.31,0,0,0-.11.55v2.12H58v-3.42h.35v.41a1.21,1.21,0,0,1,1-.45,1.18,1.18,0,0,1,.88.33,1.26,1.26,0,0,1,.34.95v2.18Z" transform="translate(-29.47 -17.97)" style="fill:#666363"/><path d="M62.91,162.71h-.3a.78.78,0,0,1-.44-.12.68.68,0,0,1-.27-.31,1.16,1.16,0,0,1-.09-.47v-2.25h-.46v-.27h.46V158.2h.35v1.09h.75v.27h-.75v2.26q0,.57.51.57h.24v.32Z" transform="translate(-29.47 -17.97)" style="fill:#666363"/><path d="M65.92,161a4.17,4.17,0,0,0,0-.67,1,1,0,0,0-.24-.47.94.94,0,0,0-.69-.29.91.91,0,0,0-.69.29,1,1,0,0,0-.24.48,3.66,3.66,0,0,0,0,1.32,1,1,0,0,0,.24.48,1,1,0,0,0,1.38,0,1,1,0,0,0,.24-.47,4.17,4.17,0,0,0,0-.67Zm.35,0a4.41,4.41,0,0,1,0,.52,1.73,1.73,0,0,1-.12.46,1.33,1.33,0,0,1-.26.39,1.24,1.24,0,0,1-.92.38,1.28,1.28,0,0,1-1.18-.76,1.91,1.91,0,0,1-.12-.47,4.07,4.07,0,0,1,0-.52,3.1,3.1,0,0,1,.09-.78,1.28,1.28,0,0,1,.33-.59,1.3,1.3,0,0,1,1.84,0,1.33,1.33,0,0,1,.26.39,1.73,1.73,0,0,1,.12.46,4.28,4.28,0,0,1,0,.52Z" transform="translate(-29.47 -17.97)" style="fill:#666363"/><path d="M69.69,161.73a.89.89,0,0,1-.16.54,1,1,0,0,1-.46.35,1.73,1.73,0,0,1-.71.13,1.81,1.81,0,0,1-1.34-.49l.24-.25a1.41,1.41,0,0,0,1.09.42,1.35,1.35,0,0,0,.74-.17.58.58,0,0,0,.26-.53.54.54,0,0,0-.15-.4,1,1,0,0,0-.48-.17l-.56,0c-.66-.05-1-.35-1-.89a.9.9,0,0,1,.15-.51,1,1,0,0,1,.42-.34,1.51,1.51,0,0,1,.63-.12,2.27,2.27,0,0,1,.65.1,1.53,1.53,0,0,1,.51.26l-.23.24a1.54,1.54,0,0,0-.93-.29,1,1,0,0,0-.63.18.58.58,0,0,0-.22.48.51.51,0,0,0,.17.41.9.9,0,0,0,.51.16l.53.05a1.39,1.39,0,0,1,.72.24.77.77,0,0,1,.25.65Z" transform="translate(-29.47 -17.97)" style="fill:#666363"/><path d="M74.61,160.79a3,3,0,0,0,0-.37l-.09-.28a.85.85,0,0,0-.34-.41.92.92,0,0,0-1,0,.91.91,0,0,0-.34.41,3.08,3.08,0,0,0-.09.3c0,.08,0,.2,0,.35Zm.36.29H72.66a1.57,1.57,0,0,0,.28,1,1,1,0,0,0,.8.34,1.28,1.28,0,0,0,.5-.09,1.56,1.56,0,0,0,.42-.32l.26.22a1.8,1.8,0,0,1-.53.39,1.51,1.51,0,0,1-.67.13,1.45,1.45,0,0,1-.77-.2,1.17,1.17,0,0,1-.47-.59,2.46,2.46,0,0,1-.17-1,2.78,2.78,0,0,1,.09-.74,1.6,1.6,0,0,1,.26-.54,1.27,1.27,0,0,1,.42-.35,1.31,1.31,0,0,1,.56-.12,1.4,1.4,0,0,1,.56.11,1.2,1.2,0,0,1,.41.33,1.43,1.43,0,0,1,.27.52,2.55,2.55,0,0,1,.09.71v.16Z" transform="translate(-29.47 -17.97)" style="fill:#666363"/><polygon points="52.05 144.74 51.68 144.74 48.85 140.36 48.85 144.74 48.48 144.74 48.48 139.7 48.85 139.7 51.68 144.06 51.68 139.7 52.05 139.7 52.05 144.74 52.05 144.74" style="fill:#666363"/><path d="M85,160.79c0-.17,0-.29,0-.37a1.24,1.24,0,0,0-.09-.28.85.85,0,0,0-.34-.41.89.89,0,0,0-.52-.16.84.84,0,0,0-.51.16.93.93,0,0,0-.35.41,1.5,1.5,0,0,0-.08.3,1.56,1.56,0,0,0,0,.35Zm.35.29H83a1.63,1.63,0,0,0,.27,1,1,1,0,0,0,.8.34,1.24,1.24,0,0,0,.5-.09A1.3,1.3,0,0,0,85,162l.26.22a1.68,1.68,0,0,1-.53.39,1.47,1.47,0,0,1-.66.13,1.4,1.4,0,0,1-.77-.2,1.24,1.24,0,0,1-.48-.59,2.47,2.47,0,0,1-.16-1,2.78,2.78,0,0,1,.09-.74,1.43,1.43,0,0,1,.26-.54,1.1,1.1,0,0,1,.42-.35,1.28,1.28,0,0,1,.56-.12,1.38,1.38,0,0,1,.55.11,1.34,1.34,0,0,1,.42.33,1.59,1.59,0,0,1,.26.52,2.55,2.55,0,0,1,.09.71v.16Z" transform="translate(-29.47 -17.97)" style="fill:#666363"/><path d="M88.44,161a2.51,2.51,0,0,0-.19-1,.76.76,0,0,0-.75-.39.74.74,0,0,0-.74.39,2.94,2.94,0,0,0,0,2.08.74.74,0,0,0,.74.39.76.76,0,0,0,.75-.39,2.51,2.51,0,0,0,.19-1Zm.35,1.9a1.84,1.84,0,0,1-.16.76,1.28,1.28,0,0,1-.47.53,1.44,1.44,0,0,1-.73.19,1.63,1.63,0,0,1-.58-.1,2.2,2.2,0,0,1-.51-.36l.23-.24a1.63,1.63,0,0,0,.4.29,1,1,0,0,0,.46.09.87.87,0,0,0,.75-.33,1.33,1.33,0,0,0,.26-.85v-.61a1.59,1.59,0,0,1-.29.29,1.21,1.21,0,0,1-.33.15,2.2,2.2,0,0,1-.36,0,1.1,1.1,0,0,1-.82-.3,2.71,2.71,0,0,1,0-2.9,1.1,1.1,0,0,1,.35-.22,1.36,1.36,0,0,1,.47-.08,1.53,1.53,0,0,1,.54.1,1.11,1.11,0,0,1,.44.38v-.44h.35v3.61Z" transform="translate(-29.47 -17.97)" style="fill:#666363"/><path d="M92,157.49l-.73,1h-.4l.66-1Zm.18,3.51a3.2,3.2,0,0,0-.06-.67,1,1,0,0,0-.24-.47.93.93,0,0,0-.69-.29.94.94,0,0,0-.69.29,1,1,0,0,0-.24.48,4.38,4.38,0,0,0,0,1.32,1,1,0,0,0,.24.48,1,1,0,0,0,1.38,0,1,1,0,0,0,.24-.47,3.2,3.2,0,0,0,.06-.67Zm.34,0a4.41,4.41,0,0,1,0,.52,1.73,1.73,0,0,1-.12.46,1.16,1.16,0,0,1-.26.39,1.23,1.23,0,0,1-.92.38,1.24,1.24,0,0,1-.92-.38A1.22,1.22,0,0,1,90,162a1.91,1.91,0,0,1-.12-.47,4.17,4.17,0,0,1,0-.52,3.12,3.12,0,0,1,.08-.78,1.28,1.28,0,0,1,.33-.59,1.3,1.3,0,0,1,1.84,0,1.16,1.16,0,0,1,.26.39,1.73,1.73,0,0,1,.12.46,4.28,4.28,0,0,1,0,.52Z" transform="translate(-29.47 -17.97)" style="fill:#666363"/><path d="M96,162.23a1.61,1.61,0,0,1-.5.41,1.48,1.48,0,0,1-.59.11,1.46,1.46,0,0,1-.6-.12,1.31,1.31,0,0,1-.46-.35,1.67,1.67,0,0,1-.3-.56,2.72,2.72,0,0,1-.1-.72,2.2,2.2,0,0,1,.18-.93,1.45,1.45,0,0,1,.5-.61,1.42,1.42,0,0,1,.78-.21,1.34,1.34,0,0,1,.6.12,1.46,1.46,0,0,1,.49.41l-.24.22a1.23,1.23,0,0,0-.27-.25.73.73,0,0,0-.26-.14,1,1,0,0,0-.32,0A1,1,0,0,0,94,160a1.15,1.15,0,0,0-.17.41,2.37,2.37,0,0,0-.06.57,2.9,2.9,0,0,0,0,.56A1.57,1.57,0,0,0,94,162a1,1,0,0,0,.88.45.93.93,0,0,0,.45-.1,1.27,1.27,0,0,0,.4-.33l.24.23Z" transform="translate(-29.47 -17.97)" style="fill:#666363"/><path d="M97.28,162.71h-.35v-3.42h.35v3.42Zm.08-4.82a.28.28,0,0,1-.07.19.25.25,0,0,1-.18.08.27.27,0,0,1-.19-.08.29.29,0,0,1,0-.38.24.24,0,0,1,.18-.07.25.25,0,0,1,.19.07.28.28,0,0,1,.07.19Z" transform="translate(-29.47 -17.97)" style="fill:#666363"/><path d="M100.66,161a3.2,3.2,0,0,0-.06-.67,1,1,0,0,0-.24-.47.91.91,0,0,0-.69-.29.94.94,0,0,0-.69.29,1,1,0,0,0-.24.48,4.38,4.38,0,0,0,0,1.32,1,1,0,0,0,.24.48,1,1,0,0,0,1.38,0,1,1,0,0,0,.24-.47,3.2,3.2,0,0,0,.06-.67Zm.35,0a3,3,0,0,1,0,.52,1.73,1.73,0,0,1-.12.46,1.16,1.16,0,0,1-.26.39,1.23,1.23,0,0,1-.92.38,1.24,1.24,0,0,1-.92-.38,1.19,1.19,0,0,1-.25-.38,1.93,1.93,0,0,1-.13-.47,4.17,4.17,0,0,1,0-.52,3.1,3.1,0,0,1,.09-.78,1.18,1.18,0,0,1,.32-.59,1.23,1.23,0,0,1,.92-.38,1.21,1.21,0,0,1,.92.38,1.16,1.16,0,0,1,.26.39,1.73,1.73,0,0,1,.12.46,2.89,2.89,0,0,1,0,.52Z" transform="translate(-29.47 -17.97)" style="fill:#666363"/><path d="M104.43,161.73a1,1,0,0,1-.16.54,1,1,0,0,1-.47.35,1.68,1.68,0,0,1-.7.13,1.82,1.82,0,0,1-1.35-.49L102,162a1.39,1.39,0,0,0,1.09.42,1.37,1.37,0,0,0,.74-.17.6.6,0,0,0,.26-.53.54.54,0,0,0-.16-.4.9.9,0,0,0-.48-.17l-.55,0c-.67-.05-1-.35-1-.89a1,1,0,0,1,.14-.51,1,1,0,0,1,.42-.34,1.54,1.54,0,0,1,.63-.12,2.21,2.21,0,0,1,.65.1,1.69,1.69,0,0,1,.52.26l-.24.24a1.49,1.49,0,0,0-.93-.29.94.94,0,0,0-.62.18.55.55,0,0,0-.22.48.5.5,0,0,0,.16.41.93.93,0,0,0,.51.16l.54.05a1.32,1.32,0,0,1,.71.24.77.77,0,0,1,.26.65Z" transform="translate(-29.47 -17.97)" style="fill:#666363"/><polygon points="78.23 144.74 77.86 144.74 77.86 139.7 78.23 139.7 78.23 144.74 78.23 144.74" style="fill:#666363"/><path d="M113.74,162.71h-.35v-2.12a1.15,1.15,0,0,0-.23-.76,1,1,0,0,0-1.36,0,.94.94,0,0,0-.26.7v2.18h-.35v-2.12a1.15,1.15,0,0,0-.23-.76.9.9,0,0,0-.68-.26,1,1,0,0,0-.51.12.84.84,0,0,0-.32.35,1.31,1.31,0,0,0-.11.55v2.12H109v-3.42h.35v.41a1.23,1.23,0,0,1,1-.45,1.33,1.33,0,0,1,.45.08.94.94,0,0,1,.35.2,1,1,0,0,1,.26.35,1.24,1.24,0,0,1,1.13-.63,1.35,1.35,0,0,1,.5.09.91.91,0,0,1,.37.24,1.26,1.26,0,0,1,.35.95v2.18Z" transform="translate(-29.47 -17.97)" style="fill:#666363"/><path d="M117.09,161a3.2,3.2,0,0,0-.06-.67.82.82,0,0,0-.24-.47,1,1,0,0,0-1.37,0,.85.85,0,0,0-.24.48,3.66,3.66,0,0,0,0,1.32.85.85,0,0,0,.24.48.94.94,0,0,0,.69.29.92.92,0,0,0,.68-.29.82.82,0,0,0,.24-.47,3.2,3.2,0,0,0,.06-.67Zm.35,0a4.41,4.41,0,0,1,0,.52,2.23,2.23,0,0,1-.13.46,1.14,1.14,0,0,1-.25.39,1.32,1.32,0,0,1-1.85,0,1.19,1.19,0,0,1-.25-.38,2.52,2.52,0,0,1-.13-.47,4.17,4.17,0,0,1,0-.52,3.1,3.1,0,0,1,.09-.78,1.25,1.25,0,0,1,1.25-1,1.24,1.24,0,0,1,.92.38,1.14,1.14,0,0,1,.25.39,2.23,2.23,0,0,1,.13.46,4.28,4.28,0,0,1,0,.52Z" transform="translate(-29.47 -17.97)" style="fill:#666363"/><path d="M120.73,161a2.36,2.36,0,0,0-.19-1,.74.74,0,0,0-.74-.39.76.76,0,0,0-.75.39,2.94,2.94,0,0,0,0,2.08.76.76,0,0,0,.75.39.74.74,0,0,0,.74-.39,2.36,2.36,0,0,0,.19-1Zm.35,0a2.06,2.06,0,0,1-.42,1.45,1.1,1.1,0,0,1-.82.3,1.3,1.3,0,0,1-.54-.11,1.08,1.08,0,0,1-.44-.37v.44h-.35v-5h.35v2.06a1.06,1.06,0,0,1,.43-.37,1.38,1.38,0,0,1,.55-.11,1.4,1.4,0,0,1,.47.08,1,1,0,0,1,.35.22,2.06,2.06,0,0,1,.42,1.45Z" transform="translate(-29.47 -17.97)" style="fill:#666363"/><path d="M122.49,162.71h-.35v-3.42h.35v3.42Zm.09-4.82a.29.29,0,0,1-.08.19.26.26,0,0,1-.44-.19.28.28,0,0,1,.07-.19.24.24,0,0,1,.18-.07.25.25,0,0,1,.19.07.29.29,0,0,1,.08.19Z" transform="translate(-29.47 -17.97)" style="fill:#666363"/><path d="M124.8,162.71h-.3a.72.72,0,0,1-.59-.24.94.94,0,0,1-.21-.65v-4.15h.35v4.14a.73.73,0,0,0,.11.44.51.51,0,0,0,.4.14h.24v.32Z" transform="translate(-29.47 -17.97)" style="fill:#666363"/><path d="M126,162.71h-.35v-3.42H126v3.42Zm.09-4.82a.29.29,0,0,1-.08.19.24.24,0,0,1-.36,0,.27.27,0,0,1,0-.38.27.27,0,0,1,.36,0,.29.29,0,0,1,.08.19Z" transform="translate(-29.47 -17.97)" style="fill:#666363"/><path d="M129.12,157.49l-.73,1H128l.66-1Zm.09,4v-.44h-1c-.57,0-.85.23-.85.69a.6.6,0,0,0,.21.5,1.07,1.07,0,0,0,.66.16,2.12,2.12,0,0,0,.47-.05.83.83,0,0,0,.36-.21.92.92,0,0,0,.18-.65Zm.35,1.19h-.35v-.34a1.13,1.13,0,0,1-.43.29,1.57,1.57,0,0,1-.58.09,2.58,2.58,0,0,1-.42,0,1.21,1.21,0,0,1-.32-.1,1.08,1.08,0,0,1-.24-.18.93.93,0,0,1-.24-.67.87.87,0,0,1,.31-.72,1.24,1.24,0,0,1,.85-.26h1.07v-.39a.78.78,0,0,0-.22-.62,1,1,0,0,0-.71-.21,1.25,1.25,0,0,0-.56.1.94.94,0,0,0-.36.33l-.25-.22a1,1,0,0,1,.3-.32,1.18,1.18,0,0,1,.38-.16,2.31,2.31,0,0,1,.49-.05c.85,0,1.28.38,1.28,1.12v2.34Z" transform="translate(-29.47 -17.97)" style="fill:#666363"/><path d="M132.88,159.58l-.25.26a.78.78,0,0,0-.28-.21.85.85,0,0,0-.35-.06,1,1,0,0,0-.37.08.79.79,0,0,0-.28.23,1.06,1.06,0,0,0-.18.33,1.6,1.6,0,0,0,0,.39v2.11h-.35v-3.42h.35v.46a.93.93,0,0,1,.41-.37,1.32,1.32,0,0,1,.56-.13,1.14,1.14,0,0,1,.43.08.84.84,0,0,1,.36.25Z" transform="translate(-29.47 -17.97)" style="fill:#666363"/><path d="M134,162.71h-.35v-3.42H134v3.42Zm.08-4.82a.28.28,0,0,1-.07.19.25.25,0,0,1-.18.08.26.26,0,0,1-.19-.08.27.27,0,0,1,0-.38.24.24,0,0,1,.18-.07.26.26,0,0,1,.19.07.28.28,0,0,1,.07.19Z" transform="translate(-29.47 -17.97)" style="fill:#666363"/><path d="M137.4,161a3.2,3.2,0,0,0-.06-.67,1,1,0,0,0-.24-.47.93.93,0,0,0-.69-.29.94.94,0,0,0-.69.29,1,1,0,0,0-.24.48,4.38,4.38,0,0,0,0,1.32,1,1,0,0,0,.24.48,1,1,0,0,0,1.38,0,1,1,0,0,0,.24-.47,3.2,3.2,0,0,0,.06-.67Zm.34,0a4.41,4.41,0,0,1,0,.52,1.73,1.73,0,0,1-.12.46,1.16,1.16,0,0,1-.26.39,1.29,1.29,0,0,1-2.1-.38,1.91,1.91,0,0,1-.12-.47,4.17,4.17,0,0,1,0-.52,3.12,3.12,0,0,1,.08-.78,1.28,1.28,0,0,1,.33-.59,1.3,1.3,0,0,1,1.84,0,1.16,1.16,0,0,1,.26.39,1.73,1.73,0,0,1,.12.46,4.28,4.28,0,0,1,0,.52Z" transform="translate(-29.47 -17.97)" style="fill:#666363"/><path d="M141.17,161.73a.89.89,0,0,1-.17.54,1,1,0,0,1-.46.35,1.71,1.71,0,0,1-.7.13,1.82,1.82,0,0,1-1.35-.49l.24-.25a1.67,1.67,0,0,0,1.84.25.6.6,0,0,0,.25-.53.54.54,0,0,0-.15-.4.93.93,0,0,0-.48-.17l-.55,0c-.67-.05-1-.35-1-.89a.9.9,0,0,1,.15-.51,1,1,0,0,1,.42-.34,1.54,1.54,0,0,1,.63-.12,2.27,2.27,0,0,1,.65.1,1.53,1.53,0,0,1,.51.26l-.23.24a1.54,1.54,0,0,0-.93-.29,1,1,0,0,0-.63.18.58.58,0,0,0-.22.48.51.51,0,0,0,.17.41.93.93,0,0,0,.51.16l.53.05a1.39,1.39,0,0,1,.72.24.77.77,0,0,1,.26.65Z" transform="translate(-29.47 -17.97)" style="fill:#666363"/><image width="2083" height="2083" transform="translate(219.67) scale(0.11 0.11)" xlink:href="../../../../../../Downloads/Logo-01.png"/><image width="2500" height="2500" transform="translate(490.87 65.37) scale(0.04 0.04)" xlink:href="../../../../../LogoImobiliarias_Prancheta%201.png"/></g></g></svg>