<svg xmlns="http://www.w3.org/2000/svg" xmlns:xlink="http://www.w3.org/1999/xlink" viewBox="0 0 1282.06 800.36"><defs><clipPath id="clip-path" transform="translate(4.29 40.55)"><rect width="407.26" height="207.98" style="fill:none"/></clipPath><clipPath id="clip-path-2" transform="translate(4.29 40.55)"><rect x="432" width="407.26" height="207.98" style="fill:none"/></clipPath><clipPath id="clip-path-3" transform="translate(4.29 40.55)"><rect x="432" y="242" width="407.26" height="207.98" style="fill:none"/></clipPath><clipPath id="clip-path-4" transform="translate(4.29 40.55)"><rect x="432" y="480" width="407.26" height="207.98" style="fill:none"/></clipPath><clipPath id="clip-path-5" transform="translate(4.29 40.55)"><rect y="241.02" width="407.26" height="207.98" style="fill:none"/></clipPath><clipPath id="clip-path-6" transform="translate(4.29 40.55)"><rect y="480" width="407.26" height="207.98" style="fill:none"/></clipPath><clipPath id="clip-path-7" transform="translate(4.29 40.55)"><rect x="865" y="480" width="407.26" height="207.98" style="fill:none"/></clipPath><clipPath id="clip-path-8" transform="translate(4.29 40.55)"><rect x="864" width="408.84" height="208.79" style="fill:none"/></clipPath><clipPath id="clip-path-9" transform="translate(4.29 40.55)"><rect x="864" y="241.95" width="408.84" height="208.79" style="fill:none"/></clipPath><image id="image" width="1280" height="853" xlink:href="../../../../../../Downloads/WhatsApp%20Image%202021-03-10%20at%2012.06.30.jpg"/></defs><title>Ativo 8</title><g id="Camada_2" data-name="Camada 2"><g id="Pagina_4" data-name="Pagina 4"><g style="clip-path:url(#clip-path)"><image width="1280" height="853" transform="translate(1.12) scale(0.32 0.34)" xlink:href="../../../../../../Downloads/WhatsApp%20Image%202021-03-10%20at%2012.06.30%20(1).jpg"/></g><g style="clip-path:url(#clip-path-2)"><image width="1280" height="853" transform="translate(433.29 10.86) scale(0.32)" xlink:href="../../../../../../Downloads/WhatsApp%20Image%202021-03-11%20at%2011.45.29.jpg"/></g><g style="clip-path:url(#clip-path-3)"><image width="1280" height="853" transform="translate(431.29 266.55) scale(0.33)" xlink:href="../../WhatsApp%20Image%202021-03-11%20at%2011.52.01%20(1).jpg"/></g><g style="clip-path:url(#clip-path-4)"><image width="1280" height="853" transform="translate(426.29 519.55) scale(0.33)" xlink:href="../../WhatsApp%20Image%202021-03-11%20at%2011.52.01.jpg"/></g><g style="clip-path:url(#clip-path-5)"><image width="1280" height="960" transform="translate(0 234.26) scale(0.33 0.34)" xlink:href="../../../../../../Downloads/WhatsApp%20Image%202020-12-28%20at%2013.58.10%20(2).jpg"/></g><g style="clip-path:url(#clip-path-6)"><image width="1280" height="853" transform="translate(4.29 516.86) scale(0.32)" xlink:href="../../../../../../Downloads/WhatsApp%20Image%202021-03-10%20at%2016.36.30.jpg"/></g><g style="clip-path:url(#clip-path-7)"><use transform="translate(860.29 507.47) scale(0.33)" xlink:href="#image"/></g><g style="clip-path:url(#clip-path-8)"><use transform="translate(869 3.33) scale(0.32 0.34)" xlink:href="#image"/><image width="6000" height="4000" transform="translate(865.3 20.92) scale(0.07)" xlink:href="../../../../HBR%20Brokers%20-%20Nazar%C3%A9%20Paulista/HBR%20Brokers%20-%20Nazar%C3%A9%20Paulista%20-%20Gazebo%20Noturna%202.jpg"/></g><g style="clip-path:url(#clip-path-9)"><image width="6000" height="4000" transform="translate(862.93 238.17) scale(0.07)" xlink:href="../../../../../../Downloads/DSC_0079.JPG"/></g></g></g></svg>